# xmcd CD database file
#
# Track frame offsets:
#	150
#	19787
#	40840
#	55122
#	71670
#	87982
#	100735
#	116072
#	130545
#	145932
#	165135
#	181000
#	203070
#	211967
#	228277
#	247510
#	272747
#	289712
#
# Disc length: 4291 seconds
#
# Revision: 8
# Processed by: cddbd v1.5.2PL0 Copyright (c) Steve Scherf et al.
# Submitted via: CDex 1.51
#
DISCID=e810c112
DTITLE=Venom - Eine Kleine Nachtmusik
DYEAR=1986
DGENRE=Black Metal
TTITLE0=01.Intro -- Too Loud For The Crowd
TTITLE1=02.Seven Gates Of Hell
TTITLE2=03.Leave Me In Hell
TTITLE3=04.Nightmare
TTITLE4=05.Countess Bathory
TTITLE5=06.Die Hard
TTITLE6=07.Schitzo
TTITLE7=08.Guitar Solo: Mantas
TTITLE8=09.In Nomine Santanas
TTITLE9=10.Witching Hour
TTITLE10=11.Black Metal
TTITLE11=12.The Chanting Of The Priests
TTITLE12=13.Satanachist
TTITLE13=14.Flytrap
TTITLE14=15.Warhead
TTITLE15=16.Buried Alive--Love Amongst The Dead
TTITLE16=17.Bass Solo: Cronos
TTITLE17=18.Welcome To Hell -- Bloodlust
EXTD=YEAR: 1986
EXTT0=
EXTT1=
EXTT2=
EXTT3=
EXTT4=
EXTT5=
EXTT6=
EXTT7=
EXTT8=
EXTT9=
EXTT10=
EXTT11=
EXTT12=
EXTT13=
EXTT14=
EXTT15=
EXTT16=
EXTT17=
PLAYORDER=
